<?xml version="1.0" encoding="UTF-8"?>
<svg width="275px" height="95px" viewBox="0 0 275 95" version="1.1" xmlns="http://www.w3.org/2000/svg" xmlns:xlink="http://www.w3.org/1999/xlink">
    <title>Group 2</title>
    <g id="Page-1" stroke="none" stroke-width="1" fill="none" fill-rule="evenodd">
        <g id="HP" transform="translate(-108.000000, -4223.000000)" fill="#FFFFFF">
            <g id="Group-9" transform="translate(0.000000, 4160.000000)">
                <g id="Group-2" transform="translate(108.000000, 63.000000)">
                    <path d="M75.2170752,53.7365561 C76.8770752,53.7365561 78.2604085,53.3215561 79.3670752,52.4915561 C80.4737418,51.6615561 81.2504085,50.5432227 81.6970752,49.1365561 L81.6970752,49.1365561 L79.2670752,48.4665561 C78.9870752,49.3998894 78.5104085,50.1332227 77.8370752,50.6665561 C77.1637418,51.1998894 76.2904085,51.4665561 75.2170752,51.4665561 C74.2504085,51.4665561 73.4437418,51.2498894 72.7970752,50.8165561 C72.1504085,50.3832227 71.6654085,49.7748894 71.3420752,48.9915561 C71.0187418,48.2082227 70.8570752,47.2898894 70.8570752,46.2365561 C70.8637418,45.1832227 71.0287418,44.2648894 71.3520752,43.4815561 C71.6754085,42.6982227 72.1587418,42.0898894 72.8020752,41.6565561 C73.4454085,41.2232227 74.2504085,41.0065561 75.2170752,41.0065561 C76.2904085,41.0065561 77.1637418,41.2715561 77.8370752,41.8015561 C78.5104085,42.3315561 78.9870752,43.0665561 79.2670752,44.0065561 L79.2670752,44.0065561 L81.6970752,43.3365561 C81.2504085,41.9298894 80.4737418,40.8115561 79.3670752,39.9815561 C78.2604085,39.1515561 76.8770752,38.7365561 75.2170752,38.7365561 C73.7770752,38.7365561 72.5437418,39.0515561 71.5170752,39.6815561 C70.4904085,40.3115561 69.7020752,41.1898894 69.1520752,42.3165561 C68.6020752,43.4432227 68.3270752,44.7498894 68.3270752,46.2365561 C68.3270752,47.7232227 68.6020752,49.0298894 69.1520752,50.1565561 C69.7020752,51.2832227 70.4904085,52.1615561 71.5170752,52.7915561 C72.5437418,53.4215561 73.7770752,53.7365561 75.2170752,53.7365561 Z M86.3137231,53.4365561 L86.3137231,47.9465561 C86.3137231,47.5332227 86.3637231,47.1482227 86.4637231,46.7915561 C86.5637231,46.4348894 86.7187231,46.1165561 86.9287231,45.8365561 C87.1387231,45.5565561 87.4103898,45.3265561 87.7437231,45.1465561 C88.0770565,44.9465561 88.4520565,44.8298894 88.8687231,44.7965561 C89.2853898,44.7632227 89.6537231,44.7932227 89.9737231,44.8865561 L89.9737231,44.8865561 L89.9737231,42.6365561 C89.6537231,42.5832227 89.3237231,42.5682227 88.9837231,42.5915561 C88.6437231,42.6148894 88.3120565,42.6782227 87.9887231,42.7815561 C87.6653898,42.8848894 87.3703898,43.0265561 87.1037231,43.2065561 C86.7903898,43.3998894 86.5220565,43.6448894 86.2987231,43.9415561 C86.2093898,44.0602227 86.1272565,44.1839561 86.0523231,44.3127561 L86.0230752,44.3665561 L86.0237231,42.6365561 L83.8937231,42.6365561 L83.8937231,53.4365561 L86.3137231,53.4365561 Z M101.677025,48.7065561 C101.770358,47.4132227 101.627025,46.2898894 101.247025,45.3365561 C100.867025,44.3832227 100.285358,43.6448894 99.5020251,43.1215561 C98.7186918,42.5982227 97.7670251,42.3365561 96.6470251,42.3365561 C95.5870251,42.3365561 94.6536918,42.5765561 93.8470251,43.0565561 C93.0403585,43.5365561 92.4103585,44.2115561 91.9570251,45.0815561 C91.5036918,45.9515561 91.2770251,46.9765561 91.2770251,48.1565561 C91.2770251,49.2498894 91.5086918,50.2165561 91.9720251,51.0565561 C92.4353585,51.8965561 93.0803585,52.5532227 93.9070251,53.0265561 C94.7336918,53.4998894 95.6936918,53.7365561 96.7870251,53.7365561 C97.8270251,53.7365561 98.7786918,53.4665561 99.6420251,52.9265561 C100.505358,52.3865561 101.143692,51.6298894 101.557025,50.6565561 L101.557025,50.6565561 L99.1770251,49.9365561 C98.9436918,50.4365561 98.6120251,50.8182227 98.1820251,51.0815561 C97.7520251,51.3448894 97.2403585,51.4765561 96.6470251,51.4765561 C95.7270251,51.4765561 95.0270251,51.1765561 94.5470251,50.5765561 C94.1870251,50.1265561 93.9620251,49.5378061 93.8720251,48.8103061 L93.8600752,48.7065561 L100.497025,48.7065561 L101.677025,48.7065561 Z M99.2290752,46.8865561 L93.9190752,46.8865561 L93.9520251,46.7165908 C94.0520251,46.2472852 94.2120251,45.8483964 94.4320251,45.5199241 L94.5470251,45.3615561 C95.0270251,44.7515561 95.7603585,44.4465561 96.7470251,44.4465561 C97.6203585,44.4465561 98.2603585,44.7165561 98.6670251,45.2565561 C98.9485636,45.6304022 99.1342441,46.1560235 99.2240665,46.83342 L99.2290752,46.8865561 Z M106.940344,53.7365561 C107.913678,53.7365561 108.725344,53.5548894 109.375344,53.1915561 C109.808678,52.9493339 110.205715,52.614519 110.566455,52.1871116 L110.730075,51.9825561 L110.730344,53.4365561 L112.840344,53.4365561 L112.840344,46.8065561 C112.840344,46.3398894 112.820344,45.9082227 112.780344,45.5115561 C112.740344,45.1148894 112.623678,44.7265561 112.430344,44.3465561 C112.077011,43.6332227 111.535344,43.1198894 110.805344,42.8065561 C110.075344,42.4932227 109.230344,42.3365561 108.270344,42.3365561 C106.997011,42.3365561 105.985344,42.6132227 105.235344,43.1665561 C104.485344,43.7198894 103.977011,44.4532227 103.710344,45.3665561 L103.710344,45.3665561 L105.910344,46.0565561 C106.090344,45.5032227 106.407011,45.1132227 106.860344,44.8865561 C107.313678,44.6598894 107.783678,44.5465561 108.270344,44.5465561 C109.077011,44.5465561 109.650344,44.7232227 109.990344,45.0765561 C110.262344,45.3592227 110.423411,45.7677561 110.473544,46.3021561 L110.477075,46.3675561 L110.254094,46.4003061 C110.075344,46.4265561 109.898573,46.4522852 109.723782,46.4774936 L109.205344,46.5515561 C108.522011,46.6482227 107.888678,46.7532227 107.305344,46.8665561 C106.722011,46.9798894 106.213678,47.1065561 105.780344,47.2465561 C105.207011,47.4398894 104.740344,47.6882227 104.380344,47.9915561 C104.020344,48.2948894 103.753678,48.6548894 103.580344,49.0715561 C103.407011,49.4882227 103.320344,49.9565561 103.320344,50.4765561 C103.320344,51.0698894 103.458678,51.6132227 103.735344,52.1065561 C104.012011,52.5998894 104.420344,52.9948894 104.960344,53.2915561 C105.500344,53.5882227 106.160344,53.7365561 106.940344,53.7365561 Z M107.420344,51.8165561 C107.040344,51.8165561 106.722011,51.7565561 106.465344,51.6365561 C106.208678,51.5165561 106.013678,51.3548894 105.880344,51.1515561 C105.747011,50.9482227 105.680344,50.7132227 105.680344,50.4465561 C105.680344,50.2132227 105.732011,50.0098894 105.835344,49.8365561 C105.938678,49.6632227 106.087011,49.5098894 106.280344,49.3765561 C106.473678,49.2432227 106.710344,49.1265561 106.990344,49.0265561 C107.277011,48.9332227 107.607011,48.8482227 107.980344,48.7715561 C108.353678,48.6948894 108.800344,48.6132227 109.320344,48.5265561 C109.580344,48.4832227 109.866178,48.4365561 110.177844,48.3865561 L110.446075,48.3435561 L110.441344,48.5315561 C110.439344,48.5988894 110.437011,48.6692227 110.434344,48.7425561 L110.425344,48.9715561 C110.408678,49.3682227 110.337011,49.7198894 110.210344,50.0265561 C110.130344,50.2732227 109.975344,50.5365561 109.745344,50.8165561 C109.515344,51.0965561 109.207011,51.3332227 108.820344,51.5265561 C108.433678,51.7198894 107.967011,51.8165561 107.420344,51.8165561 Z M119.678661,53.6115561 C120.361994,53.6282227 121.060328,53.5698894 121.773661,53.4365561 L121.773661,53.4365561 L121.773661,51.4165561 C121.100328,51.5165561 120.500328,51.5432227 119.973661,51.4965561 C119.446994,51.4498894 119.063661,51.2265561 118.823661,50.8265561 C118.696994,50.6198894 118.628661,50.3532227 118.618661,50.0265561 C118.608661,49.6998894 118.603661,49.3198894 118.603661,48.8865561 L118.603661,48.8865561 L118.603075,44.5265561 L121.773661,44.5265561 L121.773661,42.6365561 L118.603075,42.6365561 L118.603661,39.6365561 L116.203661,39.6365561 L116.203075,42.6365561 L114.243661,42.6365561 L114.243661,44.5265561 L116.203075,44.5265561 L116.203661,49.0265561 C116.203661,49.5172227 116.207928,49.9673561 116.216461,50.3769561 L116.223661,50.6765561 C116.236994,51.1632227 116.366994,51.6398894 116.613661,52.1065561 C116.893661,52.6198894 117.303661,52.9948894 117.843661,53.2315561 C118.383661,53.4682227 118.995328,53.5948894 119.678661,53.6115561 Z M126.716968,40.9965561 L126.716968,38.7865561 L124.306968,38.7865561 L124.306968,40.9965561 L126.716968,40.9965561 Z M126.716968,53.4365561 L126.716968,42.6365561 L124.306968,42.6365561 L124.306968,53.4365561 L126.716968,53.4365561 Z M135.053596,53.4365561 L138.973596,42.6365561 L136.553596,42.6365561 L133.843596,50.4665561 L131.123596,42.6365561 L128.713596,42.6365561 L132.633596,53.4365561 L135.053596,53.4365561 Z M150.57356,48.7065561 C150.666893,47.4132227 150.52356,46.2898894 150.14356,45.3365561 C149.76356,44.3832227 149.181893,43.6448894 148.39856,43.1215561 C147.615226,42.5982227 146.66356,42.3365561 145.54356,42.3365561 C144.48356,42.3365561 143.550226,42.5765561 142.74356,43.0565561 C141.936893,43.5365561 141.306893,44.2115561 140.85356,45.0815561 C140.400226,45.9515561 140.17356,46.9765561 140.17356,48.1565561 C140.17356,49.2498894 140.405226,50.2165561 140.86856,51.0565561 C141.331893,51.8965561 141.976893,52.5532227 142.80356,53.0265561 C143.630226,53.4998894 144.590226,53.7365561 145.68356,53.7365561 C146.72356,53.7365561 147.675226,53.4665561 148.53856,52.9265561 C149.401893,52.3865561 150.040226,51.6298894 150.45356,50.6565561 L150.45356,50.6565561 L148.07356,49.9365561 C147.840226,50.4365561 147.50856,50.8182227 147.07856,51.0815561 C146.64856,51.3448894 146.136893,51.4765561 145.54356,51.4765561 C144.62356,51.4765561 143.92356,51.1765561 143.44356,50.5765561 C143.08356,50.1265561 142.85856,49.5378061 142.76856,48.8103061 L142.757075,48.7065561 L149.39356,48.7065561 L150.57356,48.7065561 Z M148.126075,46.8865561 L142.816075,46.8865561 L142.84856,46.7165908 C142.94856,46.2472852 143.10856,45.8483964 143.32856,45.5199241 L143.44356,45.3615561 C143.92356,44.7515561 144.656893,44.4465561 145.64356,44.4465561 C146.516893,44.4465561 147.156893,44.7165561 147.56356,45.2565561 C147.845098,45.6304022 148.030778,46.1560235 148.120601,46.83342 L148.126075,46.8865561 Z M158.296879,53.4365561 L159.279075,50.3165561 L164.951075,50.3165561 L165.946879,53.4365561 L168.426879,53.4365561 L163.886879,39.0365561 L160.356879,39.0365561 L155.816879,53.4365561 L158.296879,53.4365561 Z M164.234075,48.0665561 L159.988075,48.0665561 L162.098075,41.3685561 L164.234075,48.0665561 Z M174.770182,58.5365561 C175.583515,58.5365561 176.325182,58.4265561 176.995182,58.2065561 C177.665182,57.9865561 178.226849,57.6515561 178.680182,57.2015561 C179.133515,56.7515561 179.440182,56.1765561 179.600182,55.4765561 C179.653515,55.2365561 179.691849,54.9915561 179.715182,54.7415561 C179.738515,54.4915561 179.750182,54.2298894 179.750182,53.9565561 L179.750182,53.9565561 L179.750182,42.6365561 L177.640182,42.6365561 L177.640075,43.4105561 L177.46117,43.25384 L177.46117,43.25384 L177.235182,43.0815561 C176.538515,42.5848894 175.676849,42.3365561 174.650182,42.3365561 C173.630182,42.3365561 172.743515,42.5848894 171.990182,43.0815561 C171.236849,43.5782227 170.655182,44.2548894 170.245182,45.1115561 C169.835182,45.9682227 169.630182,46.9432227 169.630182,48.0365561 C169.630182,49.1165561 169.833515,50.0865561 170.240182,50.9465561 C170.646849,51.8065561 171.220182,52.4865561 171.960182,52.9865561 C172.700182,53.4865561 173.566849,53.7365561 174.560182,53.7365561 C175.613515,53.7365561 176.496849,53.4865561 177.210182,52.9865561 L177.210182,52.9865561 L177.340075,52.8895561 L177.340182,53.9165561 C177.35161,54.3565561 177.278549,54.7341071 177.120998,55.0492091 L177.035182,55.2015561 C176.818515,55.5448894 176.513515,55.8048894 176.120182,55.9815561 C175.726849,56.1582227 175.280182,56.2465561 174.780182,56.2465561 C174.353515,56.2465561 173.951849,56.1515561 173.575182,55.9615561 C173.198515,55.7715561 172.906849,55.4798894 172.700182,55.0865561 L172.700182,55.0865561 L170.480182,56.1865561 C170.760182,56.6798894 171.120182,57.1015561 171.560182,57.4515561 C172.000182,57.8015561 172.495182,58.0698894 173.045182,58.2565561 C173.595182,58.4432227 174.170182,58.5365561 174.770182,58.5365561 Z M174.930182,51.5765561 C174.303515,51.5765561 173.786849,51.4198894 173.380182,51.1065561 C172.973515,50.7932227 172.671849,50.3682227 172.475182,49.8315561 C172.278515,49.2948894 172.180182,48.6965561 172.180182,48.0365561 C172.180182,47.3832227 172.280182,46.7882227 172.480182,46.2515561 C172.680182,45.7148894 172.990182,45.2882227 173.410182,44.9715561 C173.830182,44.6548894 174.363515,44.4965561 175.010182,44.4965561 C175.623515,44.4965561 176.123515,44.6448894 176.510182,44.9415561 C176.896849,45.2382227 177.181849,45.6515561 177.365182,46.1815561 C177.548515,46.7115561 177.640182,47.3298894 177.640182,48.0365561 C177.640182,48.7365561 177.548515,49.3532227 177.365182,49.8865561 C177.181849,50.4198894 176.891849,50.8348894 176.495182,51.1315561 C176.098515,51.4282227 175.576849,51.5765561 174.930182,51.5765561 Z M192.350162,48.7065561 C192.443496,47.4132227 192.300162,46.2898894 191.920162,45.3365561 C191.540162,44.3832227 190.958496,43.6448894 190.175162,43.1215561 C189.391829,42.5982227 188.440162,42.3365561 187.320162,42.3365561 C186.260162,42.3365561 185.326829,42.5765561 184.520162,43.0565561 C183.713496,43.5365561 183.083496,44.2115561 182.630162,45.0815561 C182.176829,45.9515561 181.950162,46.9765561 181.950162,48.1565561 C181.950162,49.2498894 182.181829,50.2165561 182.645162,51.0565561 C183.108496,51.8965561 183.753496,52.5532227 184.580162,53.0265561 C185.406829,53.4998894 186.366829,53.7365561 187.460162,53.7365561 C188.500162,53.7365561 189.451829,53.4665561 190.315162,52.9265561 C191.178496,52.3865561 191.816829,51.6298894 192.230162,50.6565561 L192.230162,50.6565561 L189.850162,49.9365561 C189.616829,50.4365561 189.285162,50.8182227 188.855162,51.0815561 C188.425162,51.3448894 187.913496,51.4765561 187.320162,51.4765561 C186.400162,51.4765561 185.700162,51.1765561 185.220162,50.5765561 C184.860162,50.1265561 184.635162,49.5378061 184.545162,48.8103061 L184.534075,48.7065561 L191.170162,48.7065561 L192.350162,48.7065561 Z M189.903075,46.8865561 L184.593075,46.8865561 L184.625162,46.7165908 C184.725162,46.2472852 184.885162,45.8483964 185.105162,45.5199241 L185.220162,45.3615561 C185.700162,44.7515561 186.433496,44.4465561 187.420162,44.4465561 C188.293496,44.4465561 188.933496,44.7165561 189.340162,45.2565561 C189.621701,45.6304022 189.807381,46.1560235 189.897204,46.83342 L189.903075,46.8865561 Z M197.013481,53.4365561 L197.013481,47.8865561 C197.013481,47.2265561 197.086815,46.6848894 197.233481,46.2615561 C197.380148,45.8382227 197.575148,45.5048894 197.818481,45.2615561 C198.061815,45.0182227 198.333481,44.8465561 198.633481,44.7465561 C198.933481,44.6465561 199.236815,44.5965561 199.543481,44.5965561 C200.116815,44.5965561 200.571815,44.7198894 200.908481,44.9665561 C201.245148,45.2132227 201.498481,45.5282227 201.668481,45.9115561 C201.838481,46.2948894 201.946815,46.6932227 201.993481,47.1065561 C202.040148,47.5198894 202.063481,47.8965561 202.063481,48.2365561 L202.063481,48.2365561 L202.063481,53.4365561 L204.503481,53.4365561 L204.503481,47.4065561 C204.503481,47.1465561 204.481815,46.8082227 204.438481,46.3915561 C204.395148,45.9748894 204.300148,45.5332227 204.153481,45.0665561 C204.006815,44.5998894 203.780148,44.1598894 203.473481,43.7465561 C203.166815,43.3332227 202.753481,42.9932227 202.233481,42.7265561 C201.713481,42.4598894 201.053481,42.3265561 200.253481,42.3265561 C199.240148,42.3265561 198.386815,42.5482227 197.693481,42.9915561 C197.385333,43.1885931 197.110436,43.415589 196.86879,43.6725437 L196.723075,43.8375561 L196.723481,42.6365561 L194.573481,42.6365561 L194.573481,53.4365561 L197.013481,53.4365561 Z M211.793456,53.7365561 C213.000122,53.7365561 214.020122,53.4415561 214.853456,52.8515561 C215.686789,52.2615561 216.270122,51.4165561 216.603456,50.3165561 L216.603456,50.3165561 L214.143456,49.7665561 C213.956789,50.3198894 213.678456,50.7432227 213.308456,51.0365561 C212.938456,51.3298894 212.433456,51.4765561 211.793456,51.4765561 C210.886789,51.4765561 210.203456,51.1598894 209.743456,50.5265561 C209.283456,49.8932227 209.053456,49.0632227 209.053456,48.0365561 C209.053456,47.3765561 209.150122,46.7865561 209.343456,46.2665561 C209.536789,45.7465561 209.836789,45.3382227 210.243456,45.0415561 C210.650122,44.7448894 211.166789,44.5965561 211.793456,44.5965561 C212.346789,44.5965561 212.840122,44.7582227 213.273456,45.0815561 C213.706789,45.4048894 214.016789,45.8565561 214.203456,46.4365561 L214.203456,46.4365561 L216.603456,45.7865561 C216.343456,44.7198894 215.788456,43.8782227 214.938456,43.2615561 C214.088456,42.6448894 213.050122,42.3365561 211.823456,42.3365561 C210.730122,42.3365561 209.786789,42.5815561 208.993456,43.0715561 C208.200122,43.5615561 207.588456,44.2348894 207.158456,45.0915561 C206.728456,45.9482227 206.510122,46.9298894 206.503456,48.0365561 C206.510122,49.1232227 206.721789,50.0965561 207.138456,50.9565561 C207.555122,51.8165561 208.156789,52.4948894 208.943456,52.9915561 C209.730122,53.4882227 210.680122,53.7365561 211.793456,53.7365561 Z M222.296771,58.2365561 L228.316771,42.6365561 L225.906771,42.6365561 L222.972075,50.3655561 L219.956771,42.6365561 L217.446771,42.6365561 L221.812075,53.3605561 L220.036771,58.2365561 L222.296771,58.2365561 Z" id="CreativeAgency" fill-rule="nonzero"></path>
                    <g id="Group-3" transform="translate(137.227075, 47.436556) rotate(-8.000000) translate(-137.227075, -47.436556) translate(2.727075, 18.436556)">
                        <path d="M266.449364,35.955646 C267.000858,38.7711218 263.694658,40.644147 261.493288,41.9114929 C256.569435,44.7456311 251.069231,46.5821798 245.469592,47.9139958 C233.413152,50.7812173 220.80798,52.0426251 208.433901,53.0868706 C195.646432,54.165896 182.816611,54.7300091 169.990474,55.2415282 C143.992019,56.2772908 117.972388,57.0941945 91.9453911,56.9152052 C78.9912774,56.8261347 66.0380844,56.4893634 53.1042259,55.8081862 C46.5949448,55.4654769 40.0911879,55.0353937 33.596638,54.5060605 C27.6517401,54.0216866 21.5871526,53.6823705 15.730641,52.5787447 C10.7810095,51.6456252 4.88122554,49.7955039 2.0501026,45.6210668 C-1.52493816,40.348942 6.30461288,37.1262868 10.3749851,35.403409 C12.7070938,34.4168472 15.0797129,33.5278389 17.4817942,32.7117835 C18.1925671,34.5449391 20.0063272,35.8046503 21.7381458,36.8734962 C22.1975703,37.1568252 22.6689638,37.4231884 23.141278,37.6870067 C22.8217984,37.9406455 22.510605,38.2036156 22.2196669,38.4886411 C20.8285037,39.8543887 19.9105754,41.6476746 20.3709206,43.5478451 C20.8257416,45.420022 22.4811429,46.7357204 24.2534719,47.5907971 C26.6132014,48.7292028 29.290569,49.2780467 31.8528504,49.8811812 C34.9620218,50.6132558 38.0978933,51.2452322 41.2512578,51.7915312 C47.6150698,52.8943087 54.0479335,53.645894 60.4973696,54.1650477 C73.5868249,55.2177761 86.7444111,55.3229641 99.8752974,55.3967654 C113.444432,55.4731115 127.014488,55.3993103 140.57994,55.0701736 C167.335203,54.4212314 194.184376,52.9053365 220.682766,49.3247027 C232.990555,47.6620535 245.27993,45.2715712 256.744367,40.711162 C260.071742,39.387829 263.621003,37.5665495 266.093978,34.9699326 C266.256019,35.2795586 266.381233,35.6061504 266.449364,35.955646 M45.2866438,25.9110394 C52.1826148,24.6140034 59.1071272,23.4518455 66.0518947,22.401662 C56.0439903,24.4384072 46.2275894,27.1868681 36.7905129,30.9685467 C33.9870107,32.0916832 31.2258602,33.3047385 28.5171891,34.6102574 C27.0210672,35.3313043 25.484435,36.0659238 24.1061615,36.9854705 C23.5666369,36.6919621 23.0317158,36.3916673 22.5087637,36.0735584 C20.8717762,35.0768171 19.2495197,33.8832726 18.615164,32.3300528 C27.2705743,29.4857351 36.2979436,27.6025304 45.2866438,25.9110394 M197.728113,17.2737465 C205.212405,17.850584 212.68657,18.6437355 220.097207,19.7795964 C209.481646,18.4409941 198.765731,17.6902571 188.08296,17.0820329 C168.421617,15.9631379 148.68754,15.6874435 128.992131,16.290578 C151.885097,15.2777192 174.894991,15.5143922 197.728113,17.2737465 M112.21439,18.0745327 C125.138121,17.3602722 138.08671,17.0192594 151.033459,17.0481013 C164.098055,17.0769432 177.16081,17.4832743 190.196866,18.2662463 C202.52491,19.0068038 214.899909,19.9204126 227.08985,21.8163416 C237.26532,23.4000998 247.473014,25.7125394 256.984667,29.4908249 C257.614419,29.9183632 258.158547,30.417158 258.52222,31.0347134 C259.894969,33.3658154 257.662295,35.3923812 255.6156,36.4815861 C253.16196,37.7879533 250.283882,38.4945792 247.593625,39.2699166 C244.647416,40.1190553 241.668062,40.8731854 238.667532,41.5450314 C232.655423,42.8887234 226.558612,43.898189 220.431417,44.6735264 C207.866755,46.2649192 195.165832,46.9257374 182.499894,47.3634553 C156.367939,48.2668846 130.207442,47.7697864 104.070884,47.3083164 C91.2834147,47.0835195 78.4858184,46.7942524 65.7379393,45.7754557 C59.3382205,45.2639366 52.9513912,44.5734282 46.6142793,43.602984 C41.051468,42.7504521 35.487736,41.6485229 30.2287525,39.735628 C28.5061408,39.1087414 26.8277223,38.3775151 25.2045451,37.5555217 C26.0027837,37.0677547 26.8415326,36.6385198 27.6397712,36.2406716 C32.7661752,33.6873175 38.0886864,31.477521 43.5391734,29.5815919 C54.4208131,25.7990651 65.7692428,23.2524973 77.229076,21.4880532 C88.8030749,19.7049468 100.50597,18.7217782 112.21439,18.0745327 M265.419111,34.0037298 C265.11068,34.3354113 264.793042,34.6569134 264.464356,34.9555116 C260.462114,38.5997672 254.906669,40.4320744 249.699244,42.107448 C238.242173,45.7932698 226.20967,47.6561155 214.209392,49.0820916 C201.323409,50.6141041 188.380343,51.7313026 175.417944,52.5380267 C149.574164,54.145537 123.65673,54.4984258 97.7613923,54.323678 C85.1635858,54.2380007 72.5464447,54.0963362 59.9909899,53.0631185 C53.6446711,52.5414199 47.3186075,51.7847449 41.0597542,50.6819673 C38.0739553,50.1560273 35.1038081,49.5520445 32.1585196,48.858143 C29.5897934,48.2533119 26.8498188,47.724827 24.5177101,46.5168615 C22.2601773,45.3479173 20.5743932,43.2034392 21.8394217,40.7909013 C22.3706601,39.7754977 23.2130918,38.9509594 24.1798167,38.2434852 C25.7624835,39.0680235 27.4003917,39.8017947 29.0806516,40.4439505 C34.5164077,42.5188688 40.2965019,43.6962959 46.0821203,44.590394 C52.5094599,45.5828937 58.9874374,46.2912162 65.4783046,46.8154597 C78.831998,47.8927885 92.2409328,48.1650897 105.636978,48.396673 C119.285292,48.6324977 132.933606,48.8734122 146.583762,48.916675 C160.331511,48.9599378 174.082942,48.7996109 187.816881,48.2202286 C200.735088,47.6747779 213.679074,46.848543 226.448129,44.9008683 C232.791686,43.9329689 239.086446,42.6783474 245.263358,41.0250294 C248.264808,40.2216984 251.317818,39.3946153 254.207865,38.2892929 C256.133028,37.5521285 258.183406,36.5044899 259.333348,34.8359027 C260.248514,33.5074799 260.314804,31.898273 259.534059,30.548643 C260.088314,30.7878609 260.640728,31.0287754 261.188539,31.2781727 C262.614689,31.9279632 264.327173,32.7889779 265.419111,34.0037298 M263.996645,21.6161451 C254.380034,15.7603965 242.474586,13.6286427 231.292802,11.9464828 C230.568218,11.8379017 230.257025,12.8592433 230.987132,12.969521 C236.744209,13.8347773 242.494842,14.8238839 248.096322,16.3457168 C253.571668,17.8336182 259.22931,19.7906242 263.922069,22.8478628 C266.085691,24.2568731 267.929834,26.2435692 267.894848,28.8138891 C267.871831,30.4536345 267.103975,31.9568051 266.056229,33.2657171 C264.787518,31.9568051 262.968234,30.8938972 261.334929,30.1694572 C260.071742,29.6087372 258.793823,29.0785557 257.507619,28.5704298 C256.384377,27.8570176 255.06871,27.3658574 253.823016,26.9188084 C247.796177,24.7582127 241.598089,23.0047965 235.322663,21.572034 C222.996461,18.7565582 210.370113,17.1880692 197.728113,16.2133835 C184.587099,15.2005248 171.387161,14.7348134 158.201954,14.6627087 C131.645561,14.5168027 105.081802,16.1565481 78.7804393,19.5412268 C65.5768185,21.2403524 52.4210736,23.3525955 39.395146,25.9721163 C33.233886,27.2114686 27.1030087,28.6136926 21.1083936,30.4290341 C20.1987515,30.7047284 19.2780611,30.989754 18.3546086,31.2807176 C18.3012086,30.7250874 18.3674983,30.1295875 18.600433,29.4848868 C19.5202027,26.9374708 22.0447357,25.0814114 24.3878927,23.6673113 C26.7549877,22.2387902 29.2583449,21.0079209 31.83904,19.9399233 C42.6479451,15.4651914 54.6979409,13.5573863 66.2516846,11.4536261 C91.5540977,6.84571265 117.180594,3.76048047 142.917573,2.21659194 C155.247459,1.47688272 167.601282,1.09600033 179.956947,1.06037213 C180.698103,1.05782726 180.699024,-0.00253574072 179.956947,4.55703529e-06 C153.189716,0.0763552664 126.439056,1.80601939 99.9231733,5.1805186 C86.5630351,6.88049256 73.2655039,8.99867369 60.0618831,11.5308205 C48.4354049,13.760976 36.3329298,15.9436272 25.9558285,21.5270746 C22.1874427,23.5544887 16.5859624,26.9451054 17.2120319,31.6437859 C12.8599284,33.0502514 8.4756008,34.6925416 4.65105294,36.9235453 C2.83084805,37.9856049 1.01892937,39.3920704 0.29342535,41.3270208 C-0.443126959,43.2908131 0.284218446,45.2987165 1.61553674,46.8867161 C4.80204617,50.6862088 10.0785228,52.5482062 15.0125025,53.5211953 C20.7530071,54.653663 26.7089532,54.9946757 32.5433682,55.4798978 C39.3877805,56.0491007 46.2432411,56.5071775 53.1042259,56.8685492 C80.2222405,58.2953737 107.406545,58.2105446 134.549418,57.504767 C148.112108,57.1518782 161.671115,56.6539318 175.225519,56.0889703 C188.659313,55.5290987 202.095868,54.8428317 215.467975,53.4982915 C222.111677,52.8298386 228.737886,52.0019072 235.322663,50.9483305 C241.180096,50.0109696 247.033845,48.8785019 252.629801,46.9961456 C255.337552,46.0850817 257.984537,45.0043597 260.493418,43.693751 C262.635864,42.574856 265.060042,41.3092067 266.547878,39.4446644 C268.102924,37.4978379 267.866307,35.7062486 266.800147,34.1759327 C267.373737,33.4727 267.869069,32.7177215 268.264045,31.9050593 C270.304295,27.6992355 267.850655,23.9625163 263.996645,21.6161451" id="Fill-1"></path>
                    </g>
                </g>
            </g>
        </g>
    </g>
</svg>