<?xml version="1.0" encoding="UTF-8"?>
<svg width="275px" height="95px" viewBox="0 0 275 95" version="1.1" xmlns="http://www.w3.org/2000/svg" xmlns:xlink="http://www.w3.org/1999/xlink">
    <title>Group 2</title>
    <g id="Page-1" stroke="none" stroke-width="1" fill="none" fill-rule="evenodd">
        <g id="HP" transform="translate(-132.000000, -1.000000)">
            <g id="Group-2" transform="translate(132.000000, 1.000000)">
                <text id="Creative-Agency" font-family="Manrope-ExtraLight_Bold, Manrope" font-size="20" font-weight="bold" line-spacing="20" fill="#000000">
                    <tspan x="67.7270752" y="53.4365561">Creative Agency</tspan>
                </text>
                <g id="Group-3" transform="translate(137.227075, 47.436556) rotate(-8.000000) translate(-137.227075, -47.436556) translate(2.727075, 18.436556)" fill="#020203">
                    <path d="M266.449364,35.955646 C267.000858,38.7711218 263.694658,40.644147 261.493288,41.9114929 C256.569435,44.7456311 251.069231,46.5821798 245.469592,47.9139958 C233.413152,50.7812173 220.80798,52.0426251 208.433901,53.0868706 C195.646432,54.165896 182.816611,54.7300091 169.990474,55.2415282 C143.992019,56.2772908 117.972388,57.0941945 91.9453911,56.9152052 C78.9912774,56.8261347 66.0380844,56.4893634 53.1042259,55.8081862 C46.5949448,55.4654769 40.0911879,55.0353937 33.596638,54.5060605 C27.6517401,54.0216866 21.5871526,53.6823705 15.730641,52.5787447 C10.7810095,51.6456252 4.88122554,49.7955039 2.0501026,45.6210668 C-1.52493816,40.348942 6.30461288,37.1262868 10.3749851,35.403409 C12.7070938,34.4168472 15.0797129,33.5278389 17.4817942,32.7117835 C18.1925671,34.5449391 20.0063272,35.8046503 21.7381458,36.8734962 C22.1975703,37.1568252 22.6689638,37.4231884 23.141278,37.6870067 C22.8217984,37.9406455 22.510605,38.2036156 22.2196669,38.4886411 C20.8285037,39.8543887 19.9105754,41.6476746 20.3709206,43.5478451 C20.8257416,45.420022 22.4811429,46.7357204 24.2534719,47.5907971 C26.6132014,48.7292028 29.290569,49.2780467 31.8528504,49.8811812 C34.9620218,50.6132558 38.0978933,51.2452322 41.2512578,51.7915312 C47.6150698,52.8943087 54.0479335,53.645894 60.4973696,54.1650477 C73.5868249,55.2177761 86.7444111,55.3229641 99.8752974,55.3967654 C113.444432,55.4731115 127.014488,55.3993103 140.57994,55.0701736 C167.335203,54.4212314 194.184376,52.9053365 220.682766,49.3247027 C232.990555,47.6620535 245.27993,45.2715712 256.744367,40.711162 C260.071742,39.387829 263.621003,37.5665495 266.093978,34.9699326 C266.256019,35.2795586 266.381233,35.6061504 266.449364,35.955646 M45.2866438,25.9110394 C52.1826148,24.6140034 59.1071272,23.4518455 66.0518947,22.401662 C56.0439903,24.4384072 46.2275894,27.1868681 36.7905129,30.9685467 C33.9870107,32.0916832 31.2258602,33.3047385 28.5171891,34.6102574 C27.0210672,35.3313043 25.484435,36.0659238 24.1061615,36.9854705 C23.5666369,36.6919621 23.0317158,36.3916673 22.5087637,36.0735584 C20.8717762,35.0768171 19.2495197,33.8832726 18.615164,32.3300528 C27.2705743,29.4857351 36.2979436,27.6025304 45.2866438,25.9110394 M197.728113,17.2737465 C205.212405,17.850584 212.68657,18.6437355 220.097207,19.7795964 C209.481646,18.4409941 198.765731,17.6902571 188.08296,17.0820329 C168.421617,15.9631379 148.68754,15.6874435 128.992131,16.290578 C151.885097,15.2777192 174.894991,15.5143922 197.728113,17.2737465 M112.21439,18.0745327 C125.138121,17.3602722 138.08671,17.0192594 151.033459,17.0481013 C164.098055,17.0769432 177.16081,17.4832743 190.196866,18.2662463 C202.52491,19.0068038 214.899909,19.9204126 227.08985,21.8163416 C237.26532,23.4000998 247.473014,25.7125394 256.984667,29.4908249 C257.614419,29.9183632 258.158547,30.417158 258.52222,31.0347134 C259.894969,33.3658154 257.662295,35.3923812 255.6156,36.4815861 C253.16196,37.7879533 250.283882,38.4945792 247.593625,39.2699166 C244.647416,40.1190553 241.668062,40.8731854 238.667532,41.5450314 C232.655423,42.8887234 226.558612,43.898189 220.431417,44.6735264 C207.866755,46.2649192 195.165832,46.9257374 182.499894,47.3634553 C156.367939,48.2668846 130.207442,47.7697864 104.070884,47.3083164 C91.2834147,47.0835195 78.4858184,46.7942524 65.7379393,45.7754557 C59.3382205,45.2639366 52.9513912,44.5734282 46.6142793,43.602984 C41.051468,42.7504521 35.487736,41.6485229 30.2287525,39.735628 C28.5061408,39.1087414 26.8277223,38.3775151 25.2045451,37.5555217 C26.0027837,37.0677547 26.8415326,36.6385198 27.6397712,36.2406716 C32.7661752,33.6873175 38.0886864,31.477521 43.5391734,29.5815919 C54.4208131,25.7990651 65.7692428,23.2524973 77.229076,21.4880532 C88.8030749,19.7049468 100.50597,18.7217782 112.21439,18.0745327 M265.419111,34.0037298 C265.11068,34.3354113 264.793042,34.6569134 264.464356,34.9555116 C260.462114,38.5997672 254.906669,40.4320744 249.699244,42.107448 C238.242173,45.7932698 226.20967,47.6561155 214.209392,49.0820916 C201.323409,50.6141041 188.380343,51.7313026 175.417944,52.5380267 C149.574164,54.145537 123.65673,54.4984258 97.7613923,54.323678 C85.1635858,54.2380007 72.5464447,54.0963362 59.9909899,53.0631185 C53.6446711,52.5414199 47.3186075,51.7847449 41.0597542,50.6819673 C38.0739553,50.1560273 35.1038081,49.5520445 32.1585196,48.858143 C29.5897934,48.2533119 26.8498188,47.724827 24.5177101,46.5168615 C22.2601773,45.3479173 20.5743932,43.2034392 21.8394217,40.7909013 C22.3706601,39.7754977 23.2130918,38.9509594 24.1798167,38.2434852 C25.7624835,39.0680235 27.4003917,39.8017947 29.0806516,40.4439505 C34.5164077,42.5188688 40.2965019,43.6962959 46.0821203,44.590394 C52.5094599,45.5828937 58.9874374,46.2912162 65.4783046,46.8154597 C78.831998,47.8927885 92.2409328,48.1650897 105.636978,48.396673 C119.285292,48.6324977 132.933606,48.8734122 146.583762,48.916675 C160.331511,48.9599378 174.082942,48.7996109 187.816881,48.2202286 C200.735088,47.6747779 213.679074,46.848543 226.448129,44.9008683 C232.791686,43.9329689 239.086446,42.6783474 245.263358,41.0250294 C248.264808,40.2216984 251.317818,39.3946153 254.207865,38.2892929 C256.133028,37.5521285 258.183406,36.5044899 259.333348,34.8359027 C260.248514,33.5074799 260.314804,31.898273 259.534059,30.548643 C260.088314,30.7878609 260.640728,31.0287754 261.188539,31.2781727 C262.614689,31.9279632 264.327173,32.7889779 265.419111,34.0037298 M263.996645,21.6161451 C254.380034,15.7603965 242.474586,13.6286427 231.292802,11.9464828 C230.568218,11.8379017 230.257025,12.8592433 230.987132,12.969521 C236.744209,13.8347773 242.494842,14.8238839 248.096322,16.3457168 C253.571668,17.8336182 259.22931,19.7906242 263.922069,22.8478628 C266.085691,24.2568731 267.929834,26.2435692 267.894848,28.8138891 C267.871831,30.4536345 267.103975,31.9568051 266.056229,33.2657171 C264.787518,31.9568051 262.968234,30.8938972 261.334929,30.1694572 C260.071742,29.6087372 258.793823,29.0785557 257.507619,28.5704298 C256.384377,27.8570176 255.06871,27.3658574 253.823016,26.9188084 C247.796177,24.7582127 241.598089,23.0047965 235.322663,21.572034 C222.996461,18.7565582 210.370113,17.1880692 197.728113,16.2133835 C184.587099,15.2005248 171.387161,14.7348134 158.201954,14.6627087 C131.645561,14.5168027 105.081802,16.1565481 78.7804393,19.5412268 C65.5768185,21.2403524 52.4210736,23.3525955 39.395146,25.9721163 C33.233886,27.2114686 27.1030087,28.6136926 21.1083936,30.4290341 C20.1987515,30.7047284 19.2780611,30.989754 18.3546086,31.2807176 C18.3012086,30.7250874 18.3674983,30.1295875 18.600433,29.4848868 C19.5202027,26.9374708 22.0447357,25.0814114 24.3878927,23.6673113 C26.7549877,22.2387902 29.2583449,21.0079209 31.83904,19.9399233 C42.6479451,15.4651914 54.6979409,13.5573863 66.2516846,11.4536261 C91.5540977,6.84571265 117.180594,3.76048047 142.917573,2.21659194 C155.247459,1.47688272 167.601282,1.09600033 179.956947,1.06037213 C180.698103,1.05782726 180.699024,-0.00253574072 179.956947,4.5570353e-06 C153.189716,0.0763552664 126.439056,1.80601939 99.9231733,5.1805186 C86.5630351,6.88049256 73.2655039,8.99867369 60.0618831,11.5308205 C48.4354049,13.760976 36.3329298,15.9436272 25.9558285,21.5270746 C22.1874427,23.5544887 16.5859624,26.9451054 17.2120319,31.6437859 C12.8599284,33.0502514 8.4756008,34.6925416 4.65105294,36.9235453 C2.83084805,37.9856049 1.01892937,39.3920704 0.29342535,41.3270208 C-0.443126959,43.2908131 0.284218446,45.2987165 1.61553674,46.8867161 C4.80204617,50.6862088 10.0785228,52.5482062 15.0125025,53.5211953 C20.7530071,54.653663 26.7089532,54.9946757 32.5433682,55.4798978 C39.3877805,56.0491007 46.2432411,56.5071775 53.1042259,56.8685492 C80.2222405,58.2953737 107.406545,58.2105446 134.549418,57.504767 C148.112108,57.1518782 161.671115,56.6539318 175.225519,56.0889703 C188.659313,55.5290987 202.095868,54.8428317 215.467975,53.4982915 C222.111677,52.8298386 228.737886,52.0019072 235.322663,50.9483305 C241.180096,50.0109696 247.033845,48.8785019 252.629801,46.9961456 C255.337552,46.0850817 257.984537,45.0043597 260.493418,43.693751 C262.635864,42.574856 265.060042,41.3092067 266.547878,39.4446644 C268.102924,37.4978379 267.866307,35.7062486 266.800147,34.1759327 C267.373737,33.4727 267.869069,32.7177215 268.264045,31.9050593 C270.304295,27.6992355 267.850655,23.9625163 263.996645,21.6161451" id="Fill-1"></path>
                </g>
            </g>
        </g>
    </g>
</svg>